<svg width="14" height="24" viewBox="0 0 14 24" fill="none" xmlns="http://www.w3.org/2000/svg">
<path d="M13 5V1H9C6.79086 1 5 2.79086 5 5V9H1V13H5V23H9V13H13V9H9V5H13Z" fill="white"/>
<path d="M13 5V1H9C6.79086 1 5 2.79086 5 5V9H1V13H5V23H9V13H13V9H9V5H13Z" stroke="black"/>
<path d="M13 5V1H9C6.79086 1 5 2.79086 5 5V9H1V13H5V23H9V13H13V9H9V5H13Z" stroke="url(#paint0_linear)"/>
<defs>
<linearGradient id="paint0_linear" x1="7" y1="1" x2="7" y2="23" gradientUnits="userSpaceOnUse">
<stop stop-color="white"/>
<stop offset="1" stop-color="white" stop-opacity="0"/>
</linearGradient>
</defs>
</svg>
