<svg width="26" height="15" viewBox="0 0 26 15" fill="none" xmlns="http://www.w3.org/2000/svg">
<path d="M15.5403 10.7913C16.4609 10.5016 17.6396 12.7038 18.8943 13.5466C19.8361 14.1851 20.5573 14.0473 20.5573 14.0473L23.9017 14.0004C23.9017 14.0004 25.6495 13.8954 24.8233 12.5435C24.7549 12.431 24.3389 11.5413 22.334 9.71043C20.2376 7.79509 20.5217 8.10541 23.0456 4.79416C24.5835 2.77572 25.1988 1.54291 25.0062 1.01791C24.8213 0.512592 23.6918 0.643842 23.6918 0.643842L19.9237 0.669162C19.5568 0.670092 19.2458 0.780723 19.1042 1.15197C19.1013 1.15572 18.5062 2.71384 17.7127 4.03853C16.0362 6.84072 15.367 6.98978 15.0896 6.81447C14.4531 6.40853 14.6139 5.18603 14.6139 4.31697C14.6139 1.60103 15.0299 0.468532 13.7993 0.176032C13.3881 0.0785324 13.0876 0.0147844 12.039 0.00540941C10.6985 -0.0142786 9.56027 0.00540942 8.91508 0.313842C8.48656 0.522912 8.15819 0.981342 8.35753 1.00759C8.6079 1.04041 9.16931 1.15759 9.46975 1.55697C9.8559 2.07447 9.84434 3.23416 9.84434 3.23416C9.84434 3.23416 10.0649 6.43197 9.32434 6.82853C8.8159 7.10041 8.12064 6.54541 6.62516 4.00103C5.86153 2.69978 5.28471 1.26166 5.28471 1.26166C5.28471 1.26166 5.17301 0.994472 4.97079 0.848222C4.73005 0.674782 4.39301 0.619472 4.39301 0.619472L0.816563 0.641972C0.816563 0.641972 0.27923 0.656972 0.0818227 0.887592C-0.0934366 1.09197 0.0673783 1.51384 0.0673783 1.51384C0.0673783 1.51384 2.86864 7.96478 6.04064 11.2141C8.94879 14.1973 12.2537 13.9994 12.2537 13.9994H13.7511C13.7511 13.9994 14.2027 13.9488 14.4339 13.7069C14.6496 13.4819 14.6399 13.0591 14.6399 13.0591C14.6399 13.0591 14.6101 11.0819 15.5403 10.7913Z" fill="white"/>
</svg>
